<?xml version="1.0" encoding="UTF-8"?>
<svg width="440px" height="84px" viewBox="0 0 440 84" version="1.1" xmlns="http://www.w3.org/2000/svg" xmlns:xlink="http://www.w3.org/1999/xlink">
    <!-- Generator: Sketch 55.1 (78136) - https://sketchapp.com -->
    <title>logo_change@1x</title>
    <desc>Created with Sketch.</desc>
    <g id="email" stroke="none" stroke-width="1" fill="none" fill-rule="evenodd">
        <g id="brand_change" transform="translate(-290.000000, -94.000000)">
            <g id="email_template" transform="translate(187.000000, 60.000000)">
                <g id="logo_change" transform="translate(103.000000, 30.000000)">
                    <g id="go" transform="translate(0.000000, 21.000000)" fill="#C9C9C9" fill-rule="nonzero">
                        <g id="Group" transform="translate(51.344430, 0.000000)">
                            <path d="M10.0896287,40.524968 L24.3661972,26.2483995 C25.4417414,25.1728553 25.4417414,23.4443022 24.3661972,22.368758 L10.0256082,8.02816901 C8.91165173,6.91421255 7.08066581,6.95262484 6.04353393,8.14340589 C2.30473752,12.3815621 0.0384122919,17.9769526 0.0384122919,24.2509603 C0.0384122919,30.5505762 2.33034571,36.184379 6.10755442,40.4225352 C7.1574904,41.5877081 8.97567222,41.6261204 10.0896287,40.524968 Z" id="Path"></path>
                            <path d="M24.2893726,0 C22.496799,0 20.7554417,0.19206146 19.0653009,0.550576184 C18.0025608,0.781049936 17.6056338,2.08706786 18.3738796,2.8553137 L37.8745198,22.3559539 C38.950064,23.4314981 38.950064,25.1600512 37.8745198,26.2355954 L18.4763124,45.6466069 C17.7080666,46.4148528 18.1049936,47.7336748 19.1677337,47.9641485 C20.8194622,48.3098592 22.5352113,48.4891165 24.2893726,48.4891165 C37.6824584,48.4891165 48.5403329,37.9641485 48.5403329,24.2381562 C48.5403329,10.524968 37.6824584,0 24.2893726,0 Z" id="Path"></path>
                        </g>
                        <path d="M24.9039693,48.4891165 C17.900128,48.4891165 12.0102433,46.2483995 7.23431498,41.7669654 C2.44558259,37.2855314 0.0640204866,31.4596671 0.0640204866,24.2765685 C0.0640204866,17.0422535 2.45838668,11.2163892 7.23431498,6.78617157 C12.0102433,2.35595391 17.900128,0.14084507 24.9039693,0.14084507 C32.2279129,0.14084507 38.028169,2.72727273 42.2919334,7.90012804 C43.3930858,9.23175416 42.9961588,11.2291933 41.4852753,12.0486556 L38.028169,13.9308579 C36.9270166,14.5326504 35.5441741,14.3149808 34.6991037,13.3674776 C33.7772087,12.3303457 32.6632522,11.4340589 31.3828425,10.6658131 C29.4494238,9.5262484 27.2855314,8.95006402 24.9039693,8.95006402 C20.653009,8.95006402 17.1574904,10.396927 14.4046095,13.290653 C11.6517286,16.184379 10.2816901,19.8463508 10.2816901,24.2765685 C10.2816901,28.7067862 11.6517286,32.368758 14.4046095,35.262484 C17.1574904,38.15621 20.653009,39.603073 24.9039693,39.603073 C26.8629962,39.603073 28.7580026,39.2573624 30.5761844,38.553137 C31.7669654,38.0921895 32.7912932,37.5800256 33.6491677,36.9910371 C34.4046095,36.4788732 34.8527529,35.6338028 34.8527529,34.7247119 L34.8527529,33.1754161 C34.8527529,31.6645327 33.6235595,30.4353393 32.1126761,30.4353393 L25.2752881,30.4353393 C23.7644046,30.4353393 22.5352113,29.206146 22.5352113,27.6952625 L22.5352113,24.4942382 C22.5352113,22.9833547 23.7644046,21.7541613 25.2752881,21.7541613 L42.0486556,21.7541613 C43.5595391,21.7541613 44.7887324,22.9833547 44.7887324,24.4942382 L44.7887324,38.5915493 C44.7887324,39.3085787 44.5070423,39.9871959 44.0204866,40.4993598 C38.8604353,45.8258643 32.496799,48.4891165 24.9039693,48.4891165 Z" id="Path"></path>
                    </g>
                    <g id="np_change_1411749_000000" transform="translate(147.000000, 4.000000)" fill="#3A3B3F" fill-rule="nonzero">
                        <path d="M7.082,15.957 L5.5,14.3672 C12.0859,8.0313 20.867,4.4961 30.004,4.4961 C39.1407,4.4961 47.922,8.0313 54.508,14.3672 L52.9182,15.957 L59.1682,15.957 L59.1682,9.707 L57.5002,11.375 C50.1252,4.2656 40.2812,0.297 30.0392,0.297 C19.7932,0.297 9.9492,4.2658 2.5742,11.375 L0.9062,9.707 L0.9062,15.957 L7.1562,15.957 L7.082,15.957 Z" id="Path"></path>
                        <path d="M52.918,68.043 L54.5078,69.625 C47.9219,75.957 39.1408,79.4961 30.0038,79.4961 C20.8671,79.4961 12.0858,75.957 5.4998,69.625 L7.0818,68.043 L0.8318,68.043 L0.8318,74.293 L2.4998,72.625 C9.8748,79.7344 19.7188,83.703 29.9608,83.703 C40.2068,83.703 50.0508,79.7342 57.4258,72.625 L59.0938,74.293 L59.0938,68.043 L52.918,68.043 Z" id="Path"></path>
                    </g>
                    <text id="is-now" font-family="IBMPlexSans-Bold, IBM Plex Sans" font-size="14" font-weight="bold" fill="#3A3B3F">
                        <tspan x="151" y="51">IS NOW</tspan>
                    </text>
                    <text id="raaho" font-family="IBMPlexSans-SemiBold, IBM Plex Sans SemiBold" font-size="70" font-weight="500" fill="#13B66D">
                        <tspan x="257" y="72">raaho</tspan>
                    </text>
                </g>
            </g>
        </g>
    </g>
</svg>