<?xml version="1.0" encoding="UTF-8"?>
<svg width="253px" height="253px" viewBox="0 0 253 253" version="1.1" xmlns="http://www.w3.org/2000/svg" xmlns:xlink="http://www.w3.org/1999/xlink">
    <!-- Generator: Sketch 55 (78076) - https://sketchapp.com -->
    <title>raaho</title>
    <desc>Created with Sketch.</desc>
    <g id="Page-1" stroke="none" stroke-width="1" fill="none" fill-rule="evenodd">
        <g id="Artboard-Copy" transform="translate(-130.000000, -130.000000)">
            <g id="raaho" transform="translate(130.000000, 130.000000)">
                <circle id="Oval" fill="#13B66D" cx="126.5" cy="126.5" r="126.5"></circle>
                <path d="M27,150.042553 L27,108.553191 L35.6968085,108.553191 L35.6968085,116.531915 L36.0957447,116.531915 C36.680854,114.404245 37.904246,112.542561 39.7659574,110.946809 C41.6276689,109.351056 44.2074303,108.553191 47.5053191,108.553191 L49.8191489,108.553191 L49.8191489,116.930851 L46.3882979,116.930851 C42.9308338,116.930851 40.2845836,117.489356 38.4494681,118.606383 C36.6143525,119.72341 35.6968085,121.37233 35.6968085,123.553191 L35.6968085,150.042553 L27,150.042553 Z M87.3191489,150.042553 C85.0319035,150.042553 83.2766019,149.390964 82.0531915,148.087766 C80.8297811,146.784568 80.0851077,145.122351 79.8191489,143.101064 L79.4202128,143.101064 C78.6223364,145.70746 77.1595851,147.675525 75.0319149,149.005319 C72.9042447,150.335113 70.3244832,151 67.2925532,151 C62.984021,151 59.6728839,149.88299 57.3590426,147.648936 C55.0452012,145.414882 53.8882979,142.409593 53.8882979,138.632979 C53.8882979,134.484022 55.3909424,131.372351 58.3962766,129.297872 C61.4016108,127.223394 65.8031625,126.18617 71.6010638,126.18617 L79.1010638,126.18617 L79.1010638,122.675532 C79.1010638,120.122328 78.4095814,118.154262 77.0265957,116.771277 C75.6436101,115.388291 73.4893763,114.696809 70.5638298,114.696809 C68.117009,114.696809 66.1223481,115.228718 64.5797872,116.292553 C63.0372263,117.356388 61.7340479,118.712758 60.6702128,120.361702 L55.4840426,115.654255 C56.8670282,113.313818 58.8084981,111.385646 61.3085106,109.869681 C63.8085231,108.353716 67.079767,107.595745 71.1223404,107.595745 C76.4947077,107.595745 80.6170069,108.845732 83.4893617,111.345745 C86.3617165,113.845757 87.7978723,117.436147 87.7978723,122.117021 L87.7978723,142.941489 L92.1861702,142.941489 L92.1861702,150.042553 L87.3191489,150.042553 Z M69.7659574,144.37766 C72.478737,144.37766 74.7127572,143.779261 76.4680851,142.582447 C78.223413,141.385632 79.1010638,139.776606 79.1010638,137.755319 L79.1010638,131.771277 L71.7606383,131.771277 C65.7499699,131.771277 62.7446809,133.63296 62.7446809,137.356383 L62.7446809,138.792553 C62.7446809,140.654265 63.3696746,142.050527 64.6196809,142.981383 C65.8696871,143.912239 67.5850955,144.37766 69.7659574,144.37766 Z M131.12234,150.042553 C128.835095,150.042553 127.079793,149.390964 125.856383,148.087766 C124.632973,146.784568 123.888299,145.122351 123.62234,143.101064 L123.223404,143.101064 C122.425528,145.70746 120.962777,147.675525 118.835106,149.005319 C116.707436,150.335113 114.127675,151 111.095745,151 C106.787213,151 103.476075,149.88299 101.162234,147.648936 C98.8483927,145.414882 97.6914894,142.409593 97.6914894,138.632979 C97.6914894,134.484022 99.1941339,131.372351 102.199468,129.297872 C105.204802,127.223394 109.606354,126.18617 115.404255,126.18617 L122.904255,126.18617 L122.904255,122.675532 C122.904255,120.122328 122.212773,118.154262 120.829787,116.771277 C119.446802,115.388291 117.292568,114.696809 114.367021,114.696809 C111.920201,114.696809 109.92554,115.228718 108.382979,116.292553 C106.840418,117.356388 105.537239,118.712758 104.473404,120.361702 L99.287234,115.654255 C100.67022,113.313818 102.61169,111.385646 105.111702,109.869681 C107.611715,108.353716 110.882959,107.595745 114.925532,107.595745 C120.297899,107.595745 124.420198,108.845732 127.292553,111.345745 C130.164908,113.845757 131.601064,117.436147 131.601064,122.117021 L131.601064,142.941489 L135.989362,142.941489 L135.989362,150.042553 L131.12234,150.042553 Z M113.569149,144.37766 C116.281928,144.37766 118.515949,143.779261 120.271277,142.582447 C122.026605,141.385632 122.904255,139.776606 122.904255,137.755319 L122.904255,131.771277 L115.56383,131.771277 C109.553161,131.771277 106.547872,133.63296 106.547872,137.356383 L106.547872,138.792553 C106.547872,140.654265 107.172866,142.050527 108.422872,142.981383 C109.672879,143.912239 111.388287,144.37766 113.569149,144.37766 Z M144.526596,91 L153.223404,91 L153.223404,115.414894 L153.62234,115.414894 C154.5266,113.18084 155.896267,111.319156 157.731383,109.829787 C159.566499,108.340418 162.079771,107.595745 165.271277,107.595745 C169.526617,107.595745 172.837754,108.992007 175.204787,111.784574 C177.57182,114.577142 178.755319,118.553166 178.755319,123.712766 L178.755319,150.042553 L170.058511,150.042553 L170.058511,124.75 C170.058511,118.313798 167.452154,115.095745 162.239362,115.095745 C161.122335,115.095745 160.018622,115.24202 158.928191,115.534574 C157.837761,115.827129 156.867026,116.265955 156.015957,116.851064 C155.164889,117.436173 154.486705,118.180847 153.981383,119.085106 C153.476061,119.989366 153.223404,121.02659 153.223404,122.196809 L153.223404,150.042553 L144.526596,150.042553 L144.526596,91 Z M207.079787,151 C204.207432,151 201.587778,150.494686 199.220745,149.484043 C196.853712,148.473399 194.845753,147.023946 193.196809,145.135638 C191.547864,143.247331 190.271281,140.96012 189.367021,138.273936 C188.462761,135.587753 188.010638,132.595761 188.010638,129.297872 C188.010638,125.999984 188.462761,123.007992 189.367021,120.321809 C190.271281,117.635625 191.547864,115.348414 193.196809,113.460106 C194.845753,111.571799 196.853712,110.122345 199.220745,109.111702 C201.587778,108.101059 204.207432,107.595745 207.079787,107.595745 C209.952142,107.595745 212.571797,108.101059 214.93883,109.111702 C217.305863,110.122345 219.313822,111.571799 220.962766,113.460106 C222.61171,115.348414 223.888293,117.635625 224.792553,120.321809 C225.696813,123.007992 226.148936,125.999984 226.148936,129.297872 C226.148936,132.595761 225.696813,135.587753 224.792553,138.273936 C223.888293,140.96012 222.61171,143.247331 220.962766,145.135638 C219.313822,147.023946 217.305863,148.473399 214.93883,149.484043 C212.571797,150.494686 209.952142,151 207.079787,151 Z M207.079787,143.819149 C210.058526,143.819149 212.452119,142.901605 214.260638,141.066489 C216.069158,139.231374 216.973404,136.478742 216.973404,132.808511 L216.973404,125.787234 C216.973404,122.117003 216.069158,119.364371 214.260638,117.529255 C212.452119,115.69414 210.058526,114.776596 207.079787,114.776596 C204.101049,114.776596 201.707456,115.69414 199.898936,117.529255 C198.090416,119.364371 197.18617,122.117003 197.18617,125.787234 L197.18617,132.808511 C197.18617,136.478742 198.090416,139.231374 199.898936,141.066489 C201.707456,142.901605 204.101049,143.819149 207.079787,143.819149 Z" fill="#FFFFFF" fill-rule="nonzero"></path>
            </g>
        </g>
    </g>
</svg>