<?xml version="1.0" encoding="UTF-8"?>
<svg width="200px" height="60px" viewBox="0 0 200 60" version="1.1" xmlns="http://www.w3.org/2000/svg" xmlns:xlink="http://www.w3.org/1999/xlink">
    <!-- Generator: Sketch 55 (78076) - https://sketchapp.com -->
    <title>raaho copy</title>
    <desc>Created with Sketch.</desc>
    <g id="Page-1" stroke="none" stroke-width="1" fill="none" fill-rule="evenodd">
        <g id="Artboard-Copy-3" transform="translate(-157.000000, -221.000000)" fill="#13B66D" fill-rule="nonzero">
            <g id="raaho-copy" transform="translate(157.000000, 221.000000)">
                <path d="M0,59.0425532 L0,17.5531915 L8.69680851,17.5531915 L8.69680851,25.5319149 L9.09574468,25.5319149 C9.68085399,23.4042447 10.904246,21.5425612 12.7659574,19.9468085 C14.6276689,18.3510559 17.2074303,17.5531915 20.5053191,17.5531915 L22.8191489,17.5531915 L22.8191489,25.9308511 L19.3882979,25.9308511 C15.9308338,25.9308511 13.2845836,26.4893561 11.4494681,27.606383 C9.61435253,28.7234098 8.69680851,30.3723295 8.69680851,32.5531915 L8.69680851,59.0425532 L0,59.0425532 Z M60.3191489,59.0425532 C58.0319035,59.0425532 56.2766019,58.390964 55.0531915,57.087766 C53.8297811,55.784568 53.0851077,54.1223505 52.8191489,52.1010638 L52.4202128,52.1010638 C51.6223364,54.7074598 50.1595851,56.6755253 48.0319149,58.0053191 C45.9042447,59.335113 43.3244832,60 40.2925532,60 C35.984021,60 32.6728839,58.8829899 30.3590426,56.6489362 C28.0452012,54.4148824 26.8882979,51.4095934 26.8882979,47.6329787 C26.8882979,43.4840218 28.3909424,40.3723508 31.3962766,38.2978723 C34.4016108,36.2233939 38.8031625,35.1861702 44.6010638,35.1861702 L52.1010638,35.1861702 L52.1010638,31.6755319 C52.1010638,29.1223277 51.4095814,27.1542622 50.0265957,25.7712766 C48.6436101,24.388291 46.4893763,23.6968085 43.5638298,23.6968085 C41.117009,23.6968085 39.1223481,24.2287181 37.5797872,25.2925532 C36.0372263,26.3563883 34.7340479,27.7127577 33.6702128,29.3617021 L28.4840426,24.6542553 C29.8670282,22.3138181 31.8084981,20.3856459 34.3085106,18.8696809 C36.8085231,17.3537158 40.079767,16.5957447 44.1223404,16.5957447 C49.4947077,16.5957447 53.6170069,17.8457322 56.4893617,20.3457447 C59.3617165,22.8457572 60.7978723,26.4361468 60.7978723,31.1170213 L60.7978723,51.9414894 L65.1861702,51.9414894 L65.1861702,59.0425532 L60.3191489,59.0425532 Z M42.7659574,53.3776596 C45.478737,53.3776596 47.7127572,52.7792613 49.4680851,51.5824468 C51.223413,50.3856323 52.1010638,48.7766059 52.1010638,46.7553191 L52.1010638,40.7712766 L44.7606383,40.7712766 C38.7499699,40.7712766 35.7446809,42.6329601 35.7446809,46.356383 L35.7446809,47.7925532 C35.7446809,49.6542646 36.3696746,51.0505273 37.6196809,51.981383 C38.8696871,52.9122387 40.5850955,53.3776596 42.7659574,53.3776596 Z M104.12234,59.0425532 C101.835095,59.0425532 100.079793,58.390964 98.856383,57.087766 C97.6329726,55.784568 96.8882992,54.1223505 96.6223404,52.1010638 L96.2234043,52.1010638 C95.4255279,54.7074598 93.9627766,56.6755253 91.8351064,58.0053191 C89.7074362,59.335113 87.1276747,60 84.0957447,60 C79.7872125,60 76.4760754,58.8829899 74.162234,56.6489362 C71.8483927,54.4148824 70.6914894,51.4095934 70.6914894,47.6329787 C70.6914894,43.4840218 72.1941339,40.3723508 75.1994681,38.2978723 C78.2048023,36.2233939 82.606354,35.1861702 88.4042553,35.1861702 L95.9042553,35.1861702 L95.9042553,31.6755319 C95.9042553,29.1223277 95.2127729,27.1542622 93.8297872,25.7712766 C92.4468016,24.388291 90.2925678,23.6968085 87.3670213,23.6968085 C84.9202005,23.6968085 82.9255396,24.2287181 81.3829787,25.2925532 C79.8404178,26.3563883 78.5372394,27.7127577 77.4734043,29.3617021 L72.287234,24.6542553 C73.6702197,22.3138181 75.6116896,20.3856459 78.1117021,18.8696809 C80.6117146,17.3537158 83.8829585,16.5957447 87.9255319,16.5957447 C93.2978992,16.5957447 97.4201984,17.8457322 100.292553,20.3457447 C103.164908,22.8457572 104.601064,26.4361468 104.601064,31.1170213 L104.601064,51.9414894 L108.989362,51.9414894 L108.989362,59.0425532 L104.12234,59.0425532 Z M86.5691489,53.3776596 C89.2819285,53.3776596 91.5159487,52.7792613 93.2712766,51.5824468 C95.0266045,50.3856323 95.9042553,48.7766059 95.9042553,46.7553191 L95.9042553,40.7712766 L88.5638298,40.7712766 C82.5531614,40.7712766 79.5478723,42.6329601 79.5478723,46.356383 L79.5478723,47.7925532 C79.5478723,49.6542646 80.1728661,51.0505273 81.4228723,51.981383 C82.6728786,52.9122387 84.388287,53.3776596 86.5691489,53.3776596 Z M117.526596,0 L126.223404,0 L126.223404,24.4148936 L126.62234,24.4148936 C127.5266,22.1808399 128.896267,20.3191564 130.731383,18.8297872 C132.566499,17.3404181 135.079771,16.5957447 138.271277,16.5957447 C142.526617,16.5957447 145.837754,17.9920073 148.204787,20.7845745 C150.57182,23.5771416 151.755319,27.5531657 151.755319,32.712766 L151.755319,59.0425532 L143.058511,59.0425532 L143.058511,33.75 C143.058511,27.3137976 140.452154,24.0957447 135.239362,24.0957447 C134.122335,24.0957447 133.018622,24.2420198 131.928191,24.5345745 C130.837761,24.8271291 129.867026,25.2659545 129.015957,25.8510638 C128.164889,26.4361731 127.486705,27.1808465 126.981383,28.0851064 C126.476061,28.9893662 126.223404,30.0265899 126.223404,31.1968085 L126.223404,59.0425532 L117.526596,59.0425532 L117.526596,0 Z M180.079787,60 C177.207432,60 174.587778,59.4946859 172.220745,58.4840426 C169.853712,57.4733992 167.845753,56.0239456 166.196809,54.1356383 C164.547864,52.247331 163.271281,49.9601198 162.367021,47.2739362 C161.462761,44.5877525 161.010638,41.5957612 161.010638,38.2978723 C161.010638,34.9999835 161.462761,32.0079922 162.367021,29.3218085 C163.271281,26.6356249 164.547864,24.3484137 166.196809,22.4601064 C167.845753,20.5717991 169.853712,19.1223455 172.220745,18.1117021 C174.587778,17.1010588 177.207432,16.5957447 180.079787,16.5957447 C182.952142,16.5957447 185.571797,17.1010588 187.93883,18.1117021 C190.305863,19.1223455 192.313822,20.5717991 193.962766,22.4601064 C195.61171,24.3484137 196.888293,26.6356249 197.792553,29.3218085 C198.696813,32.0079922 199.148936,34.9999835 199.148936,38.2978723 C199.148936,41.5957612 198.696813,44.5877525 197.792553,47.2739362 C196.888293,49.9601198 195.61171,52.247331 193.962766,54.1356383 C192.313822,56.0239456 190.305863,57.4733992 187.93883,58.4840426 C185.571797,59.4946859 182.952142,60 180.079787,60 Z M180.079787,52.8191489 C183.058526,52.8191489 185.452119,51.9016049 187.260638,50.0664894 C189.069158,48.2313738 189.973404,45.4787418 189.973404,41.8085106 L189.973404,34.787234 C189.973404,31.1170029 189.069158,28.3643709 187.260638,26.5292553 C185.452119,24.6941398 183.058526,23.7765957 180.079787,23.7765957 C177.101049,23.7765957 174.707456,24.6941398 172.898936,26.5292553 C171.090416,28.3643709 170.18617,31.1170029 170.18617,34.787234 L170.18617,41.8085106 C170.18617,45.4787418 171.090416,48.2313738 172.898936,50.0664894 C174.707456,51.9016049 177.101049,52.8191489 180.079787,52.8191489 Z" id="raaho"></path>
            </g>
        </g>
    </g>
</svg>