<?xml version="1.0" encoding="UTF-8"?>
<svg width="253px" height="253px" viewBox="0 0 253 253" version="1.1" xmlns="http://www.w3.org/2000/svg" xmlns:xlink="http://www.w3.org/1999/xlink">
    <!-- Generator: Sketch 55 (78076) - https://sketchapp.com -->
    <title>raaho</title>
    <desc>Created with Sketch.</desc>
    <g id="Page-1" stroke="none" stroke-width="1" fill="none" fill-rule="evenodd">
        <g id="Artboard-Copy" transform="translate(-130.000000, -130.000000)">
            <g id="raaho" transform="translate(130.000000, 130.000000)">
                <circle id="Oval" fill="#13B66D" cx="126.5" cy="126.5" r="126.5"></circle>
                <path d="M32.006,148 L32.006,107.96 L40.399,107.96 L40.399,115.66 L40.784,115.66 C41.3486695,113.606656 42.5293243,111.810008 44.326,110.27 C46.1226756,108.729992 48.6123174,107.96 51.795,107.96 L54.028,107.96 L54.028,116.045 L50.717,116.045 C47.3803166,116.045 44.8265089,116.583995 43.0555,117.662 C41.2844911,118.740005 40.399,120.331323 40.399,122.436 L40.399,148 L32.006,148 Z M90.218,148 C88.0106556,148 86.3166726,147.371173 85.136,146.1135 C83.9553274,144.855827 83.2366679,143.251676 82.98,141.301 L82.595,141.301 C81.8249962,143.816346 80.4133436,145.71566 78.36,146.999 C76.3066564,148.28234 73.8170146,148.924 70.891,148.924 C66.7329792,148.924 63.5375112,147.846011 61.3045,145.69 C59.0714888,143.533989 57.955,140.633685 57.955,136.989 C57.955,132.98498 59.4051522,129.98201 62.3055,127.98 C65.2058478,125.97799 69.4536387,124.977 75.049,124.977 L82.287,124.977 L82.287,121.589 C82.287,119.124988 81.6196733,117.225673 80.285,115.891 C78.9503267,114.556327 76.8713475,113.889 74.048,113.889 C71.6866549,113.889 69.7616741,114.402328 68.273,115.429 C66.7843259,116.455672 65.5266718,117.764659 64.5,119.356 L59.495,114.813 C60.8296733,112.554322 62.7033213,110.693507 65.116,109.2305 C67.5286787,107.767493 70.6856472,107.036 74.587,107.036 C79.7716926,107.036 83.7499861,108.242321 86.522,110.655 C89.2940139,113.067679 90.68,116.532644 90.68,121.05 L90.68,141.147 L94.915,141.147 L94.915,148 L90.218,148 Z M73.278,142.533 C75.8960131,142.533 78.0519915,141.955506 79.746,140.8005 C81.4400085,139.645494 82.287,138.092676 82.287,136.142 L82.287,130.367 L75.203,130.367 C69.4023043,130.367 66.502,132.163649 66.502,135.757 L66.502,137.143 C66.502,138.939676 67.1051606,140.287162 68.3115,141.1855 C69.5178394,142.083838 71.1733228,142.533 73.278,142.533 Z M132.491,148 C130.283656,148 128.589673,147.371173 127.409,146.1135 C126.228327,144.855827 125.509668,143.251676 125.253,141.301 L124.868,141.301 C124.097996,143.816346 122.686344,145.71566 120.633,146.999 C118.579656,148.28234 116.090015,148.924 113.164,148.924 C109.005979,148.924 105.810511,147.846011 103.5775,145.69 C101.344489,143.533989 100.228,140.633685 100.228,136.989 C100.228,132.98498 101.678152,129.98201 104.5785,127.98 C107.478848,125.97799 111.726639,124.977 117.322,124.977 L124.56,124.977 L124.56,121.589 C124.56,119.124988 123.892673,117.225673 122.558,115.891 C121.223327,114.556327 119.144347,113.889 116.321,113.889 C113.959655,113.889 112.034674,114.402328 110.546,115.429 C109.057326,116.455672 107.799672,117.764659 106.773,119.356 L101.768,114.813 C103.102673,112.554322 104.976321,110.693507 107.389,109.2305 C109.801679,107.767493 112.958647,107.036 116.86,107.036 C122.044693,107.036 126.022986,108.242321 128.795,110.655 C131.567014,113.067679 132.953,116.532644 132.953,121.05 L132.953,141.147 L137.188,141.147 L137.188,148 L132.491,148 Z M115.551,142.533 C118.169013,142.533 120.324992,141.955506 122.019,140.8005 C123.713008,139.645494 124.56,138.092676 124.56,136.142 L124.56,130.367 L117.476,130.367 C111.675304,130.367 108.775,132.163649 108.775,135.757 L108.775,137.143 C108.775,138.939676 109.378161,140.287162 110.5845,141.1855 C111.790839,142.083838 113.446323,142.533 115.551,142.533 Z M145.427,91.02 L153.82,91.02 L153.82,114.582 L154.205,114.582 C155.077671,112.425989 156.399491,110.629341 158.1705,109.192 C159.941509,107.754659 162.366985,107.036 165.447,107.036 C169.553687,107.036 172.749155,108.383487 175.0335,111.0785 C177.317845,113.773513 178.46,117.610642 178.46,122.59 L178.46,148 L170.067,148 L170.067,123.591 C170.067,117.379636 167.551692,114.274 162.521,114.274 C161.442995,114.274 160.377839,114.415165 159.3255,114.6975 C158.273161,114.979835 157.336337,115.403331 156.515,115.968 C155.693663,116.532669 155.039169,117.251329 154.5515,118.124 C154.063831,118.996671 153.82,119.997661 153.82,121.127 L153.82,148 L145.427,148 L145.427,91.02 Z M205.795,148.924 C203.022986,148.924 200.494845,148.436338 198.2105,147.461 C195.926155,146.485662 193.988341,145.086842 192.397,143.2645 C190.805659,141.442158 189.573671,139.234846 188.701,136.6425 C187.828329,134.050154 187.392,131.162683 187.392,127.98 C187.392,124.797317 187.828329,121.909846 188.701,119.3175 C189.573671,116.725154 190.805659,114.517842 192.397,112.6955 C193.988341,110.873158 195.926155,109.474338 198.2105,108.499 C200.494845,107.523662 203.022986,107.036 205.795,107.036 C208.567014,107.036 211.095155,107.523662 213.3795,108.499 C215.663845,109.474338 217.601659,110.873158 219.193,112.6955 C220.784341,114.517842 222.016329,116.725154 222.889,119.3175 C223.761671,121.909846 224.198,124.797317 224.198,127.98 C224.198,131.162683 223.761671,134.050154 222.889,136.6425 C222.016329,139.234846 220.784341,141.442158 219.193,143.2645 C217.601659,145.086842 215.663845,146.485662 213.3795,147.461 C211.095155,148.436338 208.567014,148.924 205.795,148.924 Z M205.795,141.994 C208.669681,141.994 210.979658,141.108509 212.725,139.3375 C214.470342,137.566491 215.343,134.910018 215.343,131.368 L215.343,124.592 C215.343,121.049982 214.470342,118.393509 212.725,116.6225 C210.979658,114.851491 208.669681,113.966 205.795,113.966 C202.920319,113.966 200.610342,114.851491 198.865,116.6225 C197.119658,118.393509 196.247,121.049982 196.247,124.592 L196.247,131.368 C196.247,134.910018 197.119658,137.566491 198.865,139.3375 C200.610342,141.108509 202.920319,141.994 205.795,141.994 Z" fill="#3A3B3F" fill-rule="nonzero"></path>
            </g>
        </g>
    </g>
</svg>